<?xml version="1.0" standalone="no"?>
<!DOCTYPE svg PUBLIC "-//W3C//DTD SVG 20010904//EN"
 "http://www.w3.org/TR/2001/REC-SVG-20010904/DTD/svg10.dtd">
<svg version="1.0" xmlns="http://www.w3.org/2000/svg"
 width="700.000000pt" height="700.000000pt" viewBox="0 0 700.000000 700.000000"
 preserveAspectRatio="xMidYMid meet">
<metadata>
Created by potrace 1.11, written by Peter Selinger 2001-2013
</metadata>
<g transform="translate(0.000000,700.000000) scale(0.100000,-0.100000)"
fill="#000000" stroke="none">
<path d="M1610 6921 c-131 -41 -218 -149 -228 -282 -15 -215 180 -378 389
-325 62 16 63 16 87 -6 13 -13 169 -168 346 -345 256 -256 325 -331 337 -365
13 -33 16 -81 15 -212 l-1 -170 -150 -2 c-217 -2 -260 -19 -274 -109 -5 -36
-14 -49 -59 -85 -30 -23 -68 -62 -85 -86 -26 -37 -36 -44 -65 -44 -91 0 -113
-56 -116 -306 l-1 -119 -443 0 -443 0 -21 43 c-70 145 -261 210 -408 140 -119
-57 -182 -156 -182 -283 1 -122 65 -224 177 -283 70 -36 197 -38 267 -3 58 28
129 98 152 148 l17 38 437 -1 c240 -1 440 -2 444 -3 9 -1 7 -221 -1 -222 -3
-1 -107 -2 -231 -3 -256 -1 -270 -5 -291 -74 -9 -32 -8 -44 5 -70 27 -53 41
-56 286 -58 124 -1 228 -2 232 -3 9 -1 8 -221 0 -222 -4 0 -374 -1 -822 -2
-839 -2 -837 -2 -869 -41 -36 -43 -14 -127 38 -149 21 -9 241 -12 844 -11
l816 0 -1 -113 -1 -113 -26 -1 c-14 0 -122 -1 -239 -2 l-214 -2 -29 -33 c-17
-19 -29 -44 -29 -60 0 -43 34 -89 72 -98 18 -4 130 -7 249 -7 l217 0 0 -113 0
-114 -166 -1 c-92 0 -180 -3 -197 -5 -57 -8 -124 -34 -171 -66 -26 -17 -200
-184 -386 -371 l-339 -340 -42 13 c-157 48 -317 -22 -389 -169 -34 -71 -32
-188 5 -263 30 -62 83 -115 149 -150 36 -19 58 -23 133 -23 79 0 97 4 142 27
136 72 204 230 159 373 l-16 50 338 338 c185 186 355 348 377 360 36 20 57 22
222 25 l181 2 0 -147 c1 -165 13 -227 62 -322 59 -113 164 -205 285 -250 71
-27 125 -33 276 -34 l127 -1 0 -443 -1 -444 -46 -24 c-188 -95 -222 -361 -65
-507 165 -152 438 -81 509 132 16 48 21 120 11 166 -17 82 -78 163 -152 206
-50 27 -54 33 -54 66 -1 42 -1 646 0 768 l0 81 113 -1 112 -1 2 -224 c1 -123
4 -234 7 -248 8 -29 61 -63 98 -63 16 0 41 12 60 29 l33 29 2 219 c1 120 2
228 3 239 0 21 4 21 113 20 l112 -1 1 -820 c0 -627 3 -825 12 -842 31 -57 117
-66 163 -17 l24 26 2 806 c1 444 2 817 2 828 1 21 5 22 114 20 l112 -1 1 -233
c1 -217 2 -235 21 -260 40 -54 123 -51 160 5 16 24 18 54 20 253 1 124 2 228
2 232 1 3 51 6 113 5 l112 -2 1 -190 c3 -210 13 -261 73 -347 17 -24 184 -196
371 -382 l340 -340 -15 -35 c-9 -21 -16 -66 -16 -106 0 -124 68 -231 181 -283
112 -52 261 -28 348 56 159 155 114 418 -88 511 -56 26 -73 29 -139 27 -41 -2
-88 -9 -103 -16 l-28 -14 -348 350 c-276 277 -351 357 -361 389 -9 27 -14 96
-14 210 l-1 170 125 1 c203 3 256 13 285 58 10 14 18 41 18 60 2 28 11 40 55
76 30 23 68 62 85 86 27 39 35 44 68 44 28 0 45 7 67 30 37 36 45 76 48 235 1
66 2 130 3 143 l1 22 440 -1 441 -1 15 -31 c58 -114 166 -182 289 -181 125 2
230 69 284 184 37 79 36 183 -3 262 -96 196 -351 240 -506 87 -21 -21 -46 -56
-56 -78 l-18 -41 -442 0 c-345 0 -443 3 -446 13 -3 10 -3 189 1 208 1 3 105 6
232 6 215 0 232 1 257 20 55 41 55 122 1 159 -29 20 -42 21 -255 21 -124 0
-228 3 -231 7 -7 7 -12 192 -6 211 3 8 254 11 806 10 441 0 816 3 832 7 87 22
102 144 21 181 -26 12 -160 15 -831 15 -440 0 -807 1 -815 1 -14 1 -17 48 -11
196 l1 30 236 0 236 0 29 33 c39 44 39 90 0 134 l-29 33 -231 0 c-127 1 -234
4 -238 8 -8 9 -11 217 -3 218 3 0 86 2 185 3 199 3 257 14 335 64 25 16 200
184 390 374 l346 345 39 -14 c67 -24 162 -20 227 9 68 31 133 94 161 157 31
66 31 197 0 263 -91 190 -337 241 -492 102 -91 -82 -126 -198 -96 -317 l16
-61 -338 -339 c-248 -248 -350 -345 -383 -360 -40 -18 -65 -21 -217 -22 -113
0 -173 3 -174 10 -1 5 -2 73 -3 150 -4 227 -55 351 -192 466 -114 95 -203 122
-404 124 l-155 1 0 443 0 443 46 23 c25 13 62 42 83 65 185 205 45 525 -229
524 -124 -1 -231 -69 -286 -181 -33 -67 -34 -186 -1 -258 28 -62 83 -120 142
-150 l45 -23 0 -436 c0 -320 -4 -439 -12 -444 -6 -4 -58 -7 -114 -6 l-103 1 0
237 -1 238 -33 29 c-44 40 -93 40 -133 0 -16 -16 -29 -38 -30 -48 -1 -10 -2
-112 -4 -228 -1 -115 -3 -214 -3 -220 -2 -12 -206 -14 -218 -3 -4 4 -7 371 -7
815 0 678 -2 813 -14 839 -35 77 -154 68 -180 -13 -5 -16 -8 -391 -8 -835 0
-445 -2 -808 -5 -809 -22 -5 -203 -3 -211 2 -7 4 -10 87 -10 220 0 124 -4 228
-10 247 -26 80 -150 82 -180 3 -6 -15 -11 -121 -11 -248 0 -123 -3 -223 -6
-224 -4 -1 -55 -2 -115 -3 l-107 -1 -1 160 c-2 232 -3 244 -52 340 -24 50 -90
120 -376 408 -214 215 -345 354 -344 365 1 9 5 33 10 52 46 202 -95 385 -301
388 -33 0 -72 -3 -86 -7z"/>
</g>
</svg>
