<?xml version="1.0" encoding="UTF-8" standalone="no"?>
<!-- Created with Inkscape (http://www.inkscape.org/) -->

<!-- Based on https://www.flaticon.com/free-icon/chip_897219 , a design by: https://www.flaticon.com/authors/freepik -->

<svg
   xmlns:dc="http://purl.org/dc/elements/1.1/"
   xmlns:cc="http://creativecommons.org/ns#"
   xmlns:rdf="http://www.w3.org/1999/02/22-rdf-syntax-ns#"
   xmlns:svg="http://www.w3.org/2000/svg"
   xmlns="http://www.w3.org/2000/svg"
   xmlns:sodipodi="http://sodipodi.sourceforge.net/DTD/sodipodi-0.dtd"
   xmlns:inkscape="http://www.inkscape.org/namespaces/inkscape"
   width="103.81227mm"
   height="103.80888mm"
   viewBox="0 0 367.83883 367.82675"
   id="svg4694"
   version="1.1"
   inkscape:version="0.92.4 (5da689c313, 2019-01-14)"
   sodipodi:docname="logo.svg">
  <defs
     id="defs4696" />
  <sodipodi:namedview
     id="base"
     pagecolor="#ffffff"
     bordercolor="#666666"
     borderopacity="1.0"
     inkscape:pageopacity="0"
     inkscape:pageshadow="2"
     inkscape:zoom="0.7"
     inkscape:cx="-56.627267"
     inkscape:cy="146.09537"
     inkscape:document-units="px"
     inkscape:current-layer="g4314"
     showgrid="false"
     fit-margin-left="4"
     fit-margin-top="10.2"
     fit-margin-bottom="10.2"
     fit-margin-right="4"
     inkscape:window-width="1220"
     inkscape:window-height="1008"
     inkscape:window-x="689"
     inkscape:window-y="1080"
     inkscape:window-maximized="0" />
  <metadata
     id="metadata4699">
    <rdf:RDF>
      <cc:Work
         rdf:about="">
        <dc:format>image/svg+xml</dc:format>
        <dc:type
           rdf:resource="http://purl.org/dc/dcmitype/StillImage" />
        <dc:title />
      </cc:Work>
    </rdf:RDF>
  </metadata>
  <g
     inkscape:label="Layer 1"
     inkscape:groupmode="layer"
     id="layer1"
     transform="translate(-56.086737,-137.01309)">
    <g
       id="g4255"
       transform="translate(1.3533226e-5,-1.3846548e-5)">
      <g
         id="g4144">
        <g
           id="g4531">
          <g
             id="g4314"
             style="display:inline">
            <path
               inkscape:connector-curvature="0"
               style="fill:#37342d;fill-opacity:1;stroke-width:0.70312512"
               d="M 302.88243,405.15104 H 178.88352 c -12.45164,0 -22.54571,-10.09407 -22.54571,-22.54571 V 258.60641 c 0,-12.45165 10.09407,-22.54571 22.54571,-22.54571 h 123.99961 c 12.45165,0 22.54571,10.09406 22.54571,22.54571 v 123.99962 c -7e-4,12.45093 -10.09477,22.545 -22.54641,22.54501 z"
               id="path2" />
            <g
               transform="matrix(0.70312507,0,0,0.70312507,60.88296,140.60515)"
               id="g10">
              <circle
                 style="fill:#4bd7c8"
                 cx="39.564999"
                 cy="191.871"
                 r="16.030001"
                 id="circle6" />
              <circle
                 style="fill:#4bd7c8"
                 cx="472.44"
                 cy="320.13101"
                 r="16.030001"
                 id="circle8" />
            </g>
            <g
               id="g4626"
               transform="translate(445.98219,-53.571434)">
              <circle
                 style="fill:#ec563c;fill-opacity:1;stroke-width:0.70312506"
                 cx="-368.55328"
                 cy="469.99216"
                 r="11.271095"
                 id="circle12" />
              <circle
                 style="fill:#ec563c;fill-opacity:1;stroke-width:0.70312506"
                 cx="-41.643726"
                 cy="278.36246"
                 r="11.271095"
                 id="circle14" />
            </g>
            <g
               transform="matrix(0.70312507,0,0,0.70312507,60.88296,140.60515)"
               id="g22">
              <circle
                 style="fill:#4bd7c8"
                 cx="320.13"
                 cy="39.566002"
                 r="16.030001"
                 id="circle18" />
              <circle
                 style="fill:#4bd7c8"
                 cx="191.87"
                 cy="472.44101"
                 r="16.030001"
                 id="circle20" />
            </g>
            <g
               id="g4620"
               transform="translate(445.98219,-53.571434)">
              <circle
                 style="fill:#ec563c;fill-opacity:1;stroke-width:0.70312506"
                 cx="-300.91406"
                 cy="210.72322"
                 r="11.271095"
                 id="circle24" />
              <circle
                 style="fill:#ec563c;fill-opacity:1;stroke-width:0.70312506"
                 cx="-109.28436"
                 cy="537.63281"
                 r="11.271095"
                 id="circle26" />
            </g>
            <path
               inkscape:connector-curvature="0"
               d="m 415.60956,315.33243 h -84.90798 v -11.99812 h 22.90852 c 2.91234,0 5.27344,-2.3611 5.27344,-5.27344 0,-2.91235 -2.3611,-5.27344 -5.27344,-5.27344 H 330.70158 V 280.7886 h 15.90469 c 5.92523,0 11.4961,-2.30695 15.68531,-6.49688 l 34.68235,-34.68234 c 2.25985,1.1257 4.76508,1.72476 7.36383,1.72476 4.41984,0 8.57461,-1.72125 11.7,-4.84594 3.12539,-3.12539 4.84664,-7.28015 4.84664,-11.7 0,-4.41984 -1.72125,-8.57461 -4.84664,-11.7 -3.12469,-3.12539 -7.28016,-4.84664 -11.7,-4.84664 -4.41985,0 -8.57461,1.72125 -11.7,4.84593 -3.12539,3.1254 -4.84664,7.28016 -4.84664,11.7 0,2.59875 0.59906,5.10399 1.72476,7.36383 l -34.68234,34.68235 c -2.19727,2.19727 -5.11946,3.40805 -8.22798,3.40805 H 330.70087 V 258.6064 c 0,-15.33937 -12.47976,-27.81843 -27.81844,-27.81843 h -11.63531 v -46.68399 c 6.54468,-2.20711 11.2725,-8.39954 11.2725,-15.67969 0,-9.12375 -7.42289,-16.54594 -16.54594,-16.54594 -9.12305,0 -16.54594,7.42289 -16.54594,16.54594 0,7.28015 4.72781,13.47187 11.2725,15.67969 v 46.68328 h -11.99812 v -22.90852 c 0,-2.91234 -2.3611,-5.27343 -5.27344,-5.27343 -2.91235,0 -5.27344,2.36109 -5.27344,5.27343 v 22.90852 h -11.99882 v -84.90797 c 0,-2.91234 -2.3611,-5.27344 -5.27344,-5.27344 -2.91235,0 -5.27344,2.3611 -5.27344,5.27344 v 84.90797 h -11.99812 v -22.90852 c 0,-2.91234 -2.3611,-5.27343 -5.27344,-5.27343 -2.91235,0 -5.27344,2.36109 -5.27344,5.27343 v 22.90852 h -11.99813 v -15.90398 c 0,-5.92524 -2.30765,-11.4961 -6.49758,-15.68532 l -34.69429,-34.6943 c 3.06492,-6.1882 2.03765,-13.90429 -3.10852,-19.05117 -6.45188,-6.45117 -16.94883,-6.45046 -23.4,0 -6.45118,6.45117 -6.45118,16.94812 0,23.4 3.22594,3.22524 7.46296,4.8382 11.7,4.8382 2.52281,0 5.0414,-0.5857 7.35117,-1.72968 l 34.6943,34.695 c 2.19797,2.19727 3.40805,5.11946 3.40805,8.22727 v 15.90398 h -11.63532 c -2.35195,0 -4.69125,0.29531 -6.9525,0.8768 -2.82023,0.72562 -4.51828,3.6007 -3.79266,6.42164 0.72563,2.82094 3.60141,4.51899 6.42165,3.79266 1.40273,-0.36071 2.85679,-0.54422 4.32281,-0.54422 h 123.99891 c 9.52383,0 17.27157,7.74843 17.27157,17.27157 v 123.99962 c 0,1.46461 -0.18281,2.91797 -0.54281,4.31929 -0.72493,2.82094 0.97382,5.69532 3.79406,6.42024 0.44015,0.1132 0.88171,0.16734 1.31695,0.16734 2.34914,0 4.49157,-1.58133 5.10328,-3.96211 0.58079,-2.25844 0.87539,-4.59563 0.87539,-6.94546 v -11.63532 h 46.68329 c 2.20711,6.54469 8.39954,11.2725 15.67969,11.2725 9.12375,0 16.54594,-7.42219 16.54594,-16.54594 0,-9.12375 -7.42289,-16.54594 -16.54594,-16.54594 -7.28015,0 -13.47188,4.72781 -15.67969,11.2725 h -46.68329 v -11.99882 h 22.90852 c 2.91234,0 5.27344,-2.3611 5.27344,-5.27345 0,-2.91234 -2.3611,-5.27344 -5.27344,-5.27344 H 330.70087 V 325.8793 h 84.90869 c 2.91234,0 5.27343,-2.36109 5.27343,-5.27343 0,-2.91235 -2.36109,-5.27344 -5.27343,-5.27344 z M 400.0951,220.54625 c 1.13344,-1.13344 2.63953,-1.75711 4.24195,-1.75711 1.60242,0 3.10852,0.62367 4.24196,1.75711 1.13344,1.13343 1.75711,2.63953 1.75711,4.24195 0,1.60242 -0.62367,3.10852 -1.75711,4.24195 -1.13344,1.13344 -2.63954,1.75711 -4.24196,1.75711 -1.60242,0 -3.10852,-0.62367 -4.24195,-1.75711 v 0 c -1.13344,-1.13343 -1.75711,-2.63953 -1.75711,-4.24195 0,-1.60242 0.62367,-3.10922 1.75711,-4.24195 z M 285.97368,162.42523 c 3.3082,0 5.99906,2.69156 5.99906,5.99906 0,3.3075 -2.69156,5.99906 -5.99906,5.99906 -3.3075,0 -5.99906,-2.69156 -5.99906,-5.99906 0,-3.3075 2.69085,-5.99906 5.99906,-5.99906 z m -145.15103,-1.03079 c -2.33929,-2.33929 -2.33929,-6.14531 0,-8.4839 1.17,-1.17 2.70564,-1.7543 4.24266,-1.7543 1.53633,0 3.07266,0.585 4.24196,1.7543 2.33929,2.33929 2.33929,6.14531 0,8.48461 v 0 c -2.3386,2.33789 -6.14461,2.33859 -8.48462,-7.1e-4 z m 252.2419,198.30307 c 3.30821,0 5.99907,2.69156 5.99907,5.99906 0,3.30821 -2.69157,5.99906 -5.99907,5.99906 -3.3075,0 -5.99906,-2.69156 -5.99906,-5.99906 -7e-4,-3.3082 2.69086,-5.99906 5.99906,-5.99906 z"
               id="path32"
               style="stroke-width:0.70312512" />
            <path
               inkscape:connector-curvature="0"
               d="m 329.34946,469.25072 -34.69429,-34.695 c -2.19797,-2.19726 -3.40805,-5.11945 -3.40805,-8.22726 v -15.90399 h 11.63531 c 2.35195,0 4.69055,-0.29531 6.9511,-0.8768 2.82023,-0.72562 4.51828,-3.6007 3.79266,-6.42164 -0.72563,-2.82023 -3.59931,-4.51828 -6.42165,-3.79266 -1.40203,0.36071 -2.85609,0.54352 -4.32211,0.54352 H 178.88352 c -9.52383,0 -17.27156,-7.74844 -17.27156,-17.27156 V 258.60641 c 0,-1.46601 0.18281,-2.92008 0.54351,-4.32141 0.72633,-2.82024 -0.97172,-5.69531 -3.79195,-6.42164 -2.82094,-0.72633 -5.69602,0.97172 -6.42164,3.79196 -0.58219,2.25983 -0.8768,4.59843 -0.8768,6.95109 v 11.63531 h -46.68399 c -2.20711,-6.54469 -8.39953,-11.2725 -15.67969,-11.2725 -9.12375,0 -16.54594,7.42219 -16.54594,16.54594 0,9.12375 7.42289,16.54594 16.54594,16.54594 7.28016,0 13.47188,-4.72781 15.67969,-11.2725 h 46.68329 v 11.99883 h -22.90852 c -2.91234,0 -5.27344,2.36109 -5.27344,5.27344 0,2.91234 2.3611,5.27344 5.27344,5.27344 h 22.90852 v 11.99812 H 66.1564 c -2.91235,0 -5.27344,2.36109 -5.27344,5.27344 0,2.91234 2.36109,5.27344 5.27344,5.27344 h 84.90798 v 11.99812 h -22.90852 c -2.91234,0 -5.27344,2.3611 -5.27344,5.27344 0,2.91235 2.3611,5.27344 5.27344,5.27344 h 22.90852 v 11.99883 h -15.90469 c -5.92523,0 -11.4961,2.30695 -15.68531,6.49687 l -34.68236,34.68235 c -2.25984,-1.1257 -4.76508,-1.72476 -7.36383,-1.72476 -4.41984,0 -8.57461,1.72125 -11.7,4.84594 -3.12398,3.12538 -4.84523,7.28085 -4.84523,11.7 0,4.41914 1.72125,8.5746 4.84664,11.7 3.12469,3.12539 7.28015,4.84593 11.7,4.84593 4.41984,0 8.57461,-1.72125 11.7,-4.84593 3.12539,-3.1254 4.84664,-7.28016 4.84664,-11.7 0,-2.59875 -0.59906,-5.10399 -1.72476,-7.36383 l 34.68235,-34.68235 c 2.19726,-2.19727 5.11945,-3.40805 8.22797,-3.40805 h 15.90468 v 11.63532 c 0,15.33937 12.47977,27.81843 27.81845,27.81843 h 11.63531 v 46.68329 c -6.54469,2.20711 -11.2725,8.39953 -11.2725,15.67969 0,9.12375 7.42289,16.54594 16.54594,16.54594 9.12304,0 16.54594,-7.42289 16.54594,-16.54594 0,-7.28016 -4.72782,-13.47188 -11.2725,-15.67969 v -46.68329 h 11.99812 v 22.90852 c 0,2.91235 2.3611,5.27344 5.27344,5.27344 2.91235,0 5.27344,-2.36109 5.27344,-5.27344 v -22.90852 h 11.99742 v 84.90938 c 0,2.91235 2.36109,5.27344 5.27344,5.27344 2.91234,0 5.27344,-2.36109 5.27344,-5.27344 v -84.90797 h 11.99812 v 22.90852 c 0,2.91234 2.36109,5.27344 5.27343,5.27344 2.91235,0 5.27344,-2.3611 5.27344,-5.27344 v -22.90852 h 11.99813 v 15.90399 c 0,5.92523 2.30766,11.49609 6.49758,15.68531 l 34.6943,34.6943 c -3.06492,6.18821 -2.03766,13.9043 3.10922,19.05118 3.22523,3.22593 7.46297,4.83819 11.7,4.83819 4.23703,0 8.47477,-1.61226 11.7,-4.83819 6.45117,-6.45118 6.45117,-16.94813 0,-23.39931 -5.14617,-5.14687 -12.86297,-6.17414 -19.05118,-3.10922 z M 88.7014,281.51422 c -3.30821,0 -5.99907,-2.69156 -5.99907,-5.99906 0,-3.3082 2.69157,-5.99907 5.99907,-5.99907 3.3075,0 5.99907,2.69156 5.99907,5.99907 7e-4,3.3082 -2.69087,5.99906 -5.99907,5.99906 z m -7.03055,139.15127 c -1.13344,1.13344 -2.63953,1.75711 -4.24195,1.75711 -1.60242,0 -3.10852,-0.62367 -4.24196,-1.75711 -1.13344,-1.13344 -1.75711,-2.63953 -1.75711,-4.24196 0,-1.60242 0.62367,-3.10851 1.75711,-4.24195 1.13344,-1.13344 2.63954,-1.75711 4.24196,-1.75711 1.60242,0 3.10851,0.62367 4.24195,1.75711 v 0 c 1.13344,1.13344 1.75711,2.63953 1.75711,4.24195 0,1.60243 -0.62367,3.10922 -1.75711,4.24196 z m 114.12142,58.12102 c -3.3082,0 -5.99906,-2.69156 -5.99906,-5.99907 0,-3.3075 2.69156,-5.99906 5.99906,-5.99906 3.30751,0 5.99907,2.69156 5.99907,5.99906 0,3.30751 -2.69087,5.99907 -5.99907,5.99907 z m 145.15103,9.51539 c -2.3393,2.33929 -6.14532,2.3386 -8.48461,0 -2.3393,-2.33929 -2.3393,-6.14531 0,-8.48391 1.17,-1.1693 2.70633,-1.75429 4.24265,-1.75429 1.53633,0 3.07266,0.58499 4.24196,1.75429 2.33859,2.3386 2.33859,6.14462 0,8.48391 z"
               id="path34"
               style="stroke-width:0.70312512" />
          </g>
        </g>
      </g>
    </g>
  </g>
</svg>
